# Blender v2.92.0 OBJ File: ''
# www.blender.org
mtllib Goalpole.mtl
o 円錐
v 0.000000 6.125002 -0.500000
v 0.097545 6.125002 -0.490393
v 0.191342 6.125002 -0.461940
v 0.277785 6.125002 -0.415735
v 0.353553 6.125002 -0.353553
v 0.415735 6.125002 -0.277785
v 0.461940 6.125002 -0.191342
v 0.490393 6.125002 -0.097545
v 0.500000 6.125002 -0.000000
v 0.490393 6.125002 0.097545
v 0.461940 6.125002 0.191342
v 0.415735 6.125002 0.277785
v 0.353553 6.125002 0.353553
v 0.277785 6.125002 0.415735
v 0.191342 6.125002 0.461940
v 0.097545 6.125002 0.490393
v -0.000000 6.125002 0.500000
v -0.097545 6.125002 0.490393
v -0.191342 6.125002 0.461940
v -0.277785 6.125002 0.415735
v -0.353554 6.125002 0.353553
v -0.415735 6.125002 0.277785
v -0.461940 6.125002 0.191341
v -0.490393 6.125002 0.097545
v -0.500000 6.125002 -0.000000
v -0.490393 6.125002 -0.097546
v -0.461940 6.125002 -0.191342
v -0.415734 6.125002 -0.277786
v -0.353553 6.125002 -0.353554
v -0.277785 6.125002 -0.415735
v -0.191341 6.125002 -0.461940
v -0.097544 6.125002 -0.490393
v 0.000000 6.875002 0.000000
v 0.000000 0.000000 -0.500000
v 0.000000 0.200000 -0.500000
v 0.353553 0.000000 -0.353553
v 0.353553 0.200000 -0.353553
v 0.500000 0.000000 0.000000
v 0.500000 0.200000 0.000000
v 0.353553 0.000000 0.353553
v 0.353553 0.200000 0.353553
v -0.000000 0.000000 0.500000
v -0.000000 0.200000 0.500000
v -0.353553 0.000000 0.353553
v -0.353553 0.200000 0.353553
v -0.500000 0.000000 -0.000000
v -0.500000 0.200000 -0.000000
v -0.353553 0.000000 -0.353553
v -0.353553 0.200000 -0.353553
v 0.000000 0.100000 -0.200000
v 0.000000 6.100000 -0.200000
v 0.039018 0.100000 -0.196157
v 0.039018 6.100000 -0.196157
v 0.076537 0.100000 -0.184776
v 0.076537 6.100000 -0.184776
v 0.111114 0.100000 -0.166294
v 0.111114 6.100000 -0.166294
v 0.141421 0.100000 -0.141421
v 0.141421 6.100000 -0.141421
v 0.166294 0.100000 -0.111114
v 0.166294 6.100000 -0.111114
v 0.184776 0.100000 -0.076537
v 0.184776 6.100000 -0.076537
v 0.196157 0.100000 -0.039018
v 0.196157 6.100000 -0.039018
v 0.200000 0.100000 -0.000000
v 0.200000 6.100000 -0.000000
v 0.196157 0.100000 0.039018
v 0.196157 6.100000 0.039018
v 0.184776 0.100000 0.076537
v 0.184776 6.100000 0.076537
v 0.166294 0.100000 0.111114
v 0.166294 6.100000 0.111114
v 0.141421 0.100000 0.141421
v 0.141421 6.100000 0.141421
v 0.111114 0.100000 0.166294
v 0.111114 6.100000 0.166294
v 0.076537 0.100000 0.184776
v 0.076537 6.100000 0.184776
v 0.039018 0.100000 0.196157
v 0.039018 6.100000 0.196157
v -0.000000 0.100000 0.200000
v -0.000000 6.100000 0.200000
v -0.039018 0.100000 0.196157
v -0.039018 6.100000 0.196157
v -0.076537 0.100000 0.184776
v -0.076537 6.100000 0.184776
v -0.111114 0.100000 0.166294
v -0.111114 6.100000 0.166294
v -0.141421 0.100000 0.141421
v -0.141421 6.100000 0.141421
v -0.166294 0.100000 0.111114
v -0.166294 6.100000 0.111114
v -0.184776 0.100000 0.076537
v -0.184776 6.100000 0.076537
v -0.196157 0.100000 0.039018
v -0.196157 6.100000 0.039018
v -0.200000 0.100000 -0.000000
v -0.200000 6.100000 -0.000000
v -0.196157 0.100000 -0.039018
v -0.196157 6.100000 -0.039018
v -0.184776 0.100000 -0.076537
v -0.184776 6.100000 -0.076537
v -0.166294 0.100000 -0.111114
v -0.166294 6.100000 -0.111114
v -0.141421 0.100000 -0.141422
v -0.141421 6.100000 -0.141422
v -0.111114 0.100000 -0.166294
v -0.111114 6.100000 -0.166294
v -0.076536 0.100000 -0.184776
v -0.076536 6.100000 -0.184776
v -0.039018 0.100000 -0.196157
v -0.039018 6.100000 -0.196157
vt 0.452595 0.117676
vt 0.503099 0.004380
vt 0.466851 0.124856
vt 0.480358 0.131659
vt 0.492598 0.137823
vt 0.503099 0.143112
vt 0.491319 0.177550
vt 0.491319 0.316282
vt 0.480818 0.182839
vt 0.468578 0.189003
vt 0.455071 0.195806
vt 0.440815 0.202986
vt 0.426358 0.210267
vt 0.412255 0.217369
vt 0.399049 0.224020
vt 0.387247 0.229964
vt 0.500078 0.266117
vt 0.606861 0.177550
vt 0.510853 0.270823
vt 0.523411 0.276309
vt 0.537271 0.282363
vt 0.551898 0.288752
vt 0.566732 0.295231
vt 0.581202 0.301552
vt 0.594751 0.307471
vt 0.606861 0.312760
vt 0.387247 0.411360
vt 0.491319 0.325041
vt 0.399049 0.417303
vt 0.412255 0.423954
vt 0.426358 0.431057
vt 0.440815 0.438338
vt 0.455071 0.445518
vt 0.468578 0.452320
vt 0.480818 0.458485
vt 0.491319 0.463773
vt 0.399028 0.090698
vt 0.410829 0.096642
vt 0.424035 0.103293
vt 0.229016 0.110564
vt 0.225857 0.094682
vt 0.225857 0.078489
vt 0.229016 0.062607
vt 0.235213 0.047646
vt 0.244209 0.034182
vt 0.255660 0.022732
vt 0.269124 0.013736
vt 0.284084 0.007539
vt 0.299966 0.004380
vt 0.316159 0.004380
vt 0.332041 0.007539
vt 0.347002 0.013736
vt 0.360466 0.022732
vt 0.371916 0.034182
vt 0.380912 0.047646
vt 0.387109 0.062607
vt 0.390268 0.078489
vt 0.390268 0.094682
vt 0.387109 0.110564
vt 0.380912 0.125524
vt 0.371916 0.138988
vt 0.360466 0.150439
vt 0.347002 0.159435
vt 0.332041 0.165632
vt 0.316159 0.168791
vt 0.299966 0.168791
vt 0.284084 0.165632
vt 0.269124 0.159435
vt 0.255660 0.150438
vt 0.244209 0.138988
vt 0.235213 0.125524
vt 0.438138 0.110395
vt 0.533120 0.378067
vt 0.500078 0.378067
vt 0.500078 0.321519
vt 0.533120 0.321519
vt 0.544900 0.120905
vt 0.511858 0.120905
vt 0.511858 0.064357
vt 0.544900 0.064357
vt 0.511858 0.004380
vt 0.544900 0.004380
vt 0.574921 0.438044
vt 0.541879 0.438044
vt 0.541879 0.381497
vt 0.574921 0.381497
vt 0.541879 0.321519
vt 0.574921 0.321519
vt 0.574921 0.563329
vt 0.541879 0.563329
vt 0.541879 0.503351
vt 0.574921 0.503351
vt 0.225857 0.222255
vt 0.270562 0.177550
vt 0.333784 0.177550
vt 0.378488 0.222255
vt 0.378488 0.285477
vt 0.333784 0.330181
vt 0.270562 0.330181
vt 0.225857 0.285477
vt 0.541879 0.446804
vt 0.574921 0.446804
vt 0.533120 0.438044
vt 0.500078 0.438044
vt 0.225857 0.383645
vt 0.270562 0.338941
vt 0.333784 0.338941
vt 0.378488 0.383645
vt 0.378488 0.446867
vt 0.333784 0.491572
vt 0.270562 0.491572
vt 0.225857 0.446867
vt 0.193107 0.004380
vt 0.193107 0.995620
vt 0.186722 0.995620
vt 0.186722 0.004380
vt 0.180673 0.995620
vt 0.180673 0.004380
vt 0.175191 0.995620
vt 0.175191 0.004380
vt 0.170488 0.995620
vt 0.170488 0.004380
vt 0.050990 0.004380
vt 0.050990 0.995620
vt 0.046287 0.995620
vt 0.046287 0.004380
vt 0.040805 0.995620
vt 0.040805 0.004380
vt 0.034755 0.995620
vt 0.034756 0.004380
vt 0.028371 0.995620
vt 0.028371 0.004380
vt 0.021896 0.995620
vt 0.021896 0.004380
vt 0.015580 0.995620
vt 0.015580 0.004380
vt 0.009665 0.995620
vt 0.009665 0.004380
vt 0.004380 0.995620
vt 0.004380 0.004380
vt 0.161729 0.004380
vt 0.161728 0.995620
vt 0.157025 0.995620
vt 0.157025 0.004380
vt 0.151544 0.995620
vt 0.151544 0.004380
vt 0.145494 0.995620
vt 0.145494 0.004380
vt 0.139109 0.995620
vt 0.139109 0.004380
vt 0.132635 0.995620
vt 0.132635 0.004380
vt 0.126318 0.995620
vt 0.126319 0.004380
vt 0.120404 0.995620
vt 0.120404 0.004380
vt 0.115118 0.995620
vt 0.115118 0.004380
vt 0.106359 0.004380
vt 0.106359 0.995620
vt 0.101073 0.995620
vt 0.101073 0.004380
vt 0.095159 0.995620
vt 0.095159 0.004380
vt 0.088843 0.995620
vt 0.088843 0.004380
vt 0.082368 0.995620
vt 0.082368 0.004380
vt 0.075983 0.995620
vt 0.075983 0.004380
vt 0.069934 0.995620
vt 0.069934 0.004380
vt 0.064452 0.995620
vt 0.064452 0.004380
vt 0.059749 0.995620
vt 0.059749 0.004380
vt 0.217098 0.004380
vt 0.217098 0.995620
vt 0.211812 0.995620
vt 0.211812 0.004380
vt 0.205898 0.995620
vt 0.205898 0.004380
vt 0.461771 0.508653
vt 0.461771 0.502176
vt 0.463035 0.495824
vt 0.465514 0.489839
vt 0.469112 0.484454
vt 0.473692 0.479874
vt 0.479078 0.476275
vt 0.485062 0.473796
vt 0.491415 0.472533
vt 0.497892 0.472533
vt 0.504245 0.473796
vt 0.510229 0.476275
vt 0.515615 0.479874
vt 0.520195 0.484454
vt 0.523793 0.489839
vt 0.526272 0.495823
vt 0.527536 0.502176
vt 0.527536 0.508653
vt 0.526272 0.515006
vt 0.523793 0.520990
vt 0.520195 0.526376
vt 0.515615 0.530956
vt 0.510229 0.534555
vt 0.504245 0.537033
vt 0.497892 0.538297
vt 0.491415 0.538297
vt 0.485062 0.537033
vt 0.479078 0.534555
vt 0.473692 0.530956
vt 0.469112 0.526376
vt 0.465514 0.520990
vt 0.463035 0.515006
vt 0.199582 0.995620
vt 0.199582 0.004380
vt 0.387248 0.502176
vt 0.388511 0.495823
vt 0.390990 0.489839
vt 0.394588 0.484454
vt 0.399169 0.479874
vt 0.404554 0.476275
vt 0.410538 0.473796
vt 0.416891 0.472533
vt 0.423368 0.472533
vt 0.429721 0.473796
vt 0.435705 0.476275
vt 0.441091 0.479874
vt 0.445671 0.484454
vt 0.449270 0.489839
vt 0.451748 0.495823
vt 0.453012 0.502176
vt 0.453012 0.508653
vt 0.451748 0.515006
vt 0.449270 0.520990
vt 0.445671 0.526376
vt 0.441091 0.530956
vt 0.435705 0.534555
vt 0.429721 0.537033
vt 0.423368 0.538297
vt 0.416891 0.538297
vt 0.410538 0.537033
vt 0.404554 0.534555
vt 0.399169 0.530956
vt 0.394588 0.526376
vt 0.390990 0.520990
vt 0.388511 0.515006
vt 0.387248 0.508653
vn 0.0817 0.5528 -0.8293
vn 0.2419 0.5528 -0.7974
vn 0.3928 0.5528 -0.7349
vn 0.5286 0.5528 -0.6441
vn 0.6441 0.5528 -0.5286
vn 0.7349 0.5528 -0.3928
vn 0.7974 0.5528 -0.2419
vn 0.8293 0.5528 -0.0817
vn 0.8293 0.5528 0.0817
vn 0.7974 0.5528 0.2419
vn 0.7349 0.5528 0.3928
vn 0.6441 0.5528 0.5286
vn 0.5286 0.5528 0.6441
vn 0.3928 0.5528 0.7349
vn 0.2419 0.5528 0.7974
vn 0.0817 0.5528 0.8293
vn -0.0817 0.5528 0.8293
vn -0.2419 0.5528 0.7974
vn -0.3928 0.5528 0.7349
vn -0.5286 0.5528 0.6441
vn -0.6441 0.5528 0.5286
vn -0.7349 0.5528 0.3928
vn -0.7974 0.5528 0.2419
vn -0.8293 0.5528 0.0817
vn -0.8293 0.5528 -0.0817
vn -0.7974 0.5528 -0.2419
vn -0.7349 0.5528 -0.3928
vn -0.6441 0.5528 -0.5286
vn -0.5286 0.5528 -0.6441
vn -0.3928 0.5528 -0.7349
vn 0.0000 -1.0000 0.0000
vn -0.2419 0.5528 -0.7974
vn -0.0817 0.5528 -0.8293
vn 0.3827 0.0000 -0.9239
vn 0.9239 0.0000 -0.3827
vn 0.9239 0.0000 0.3827
vn 0.3827 0.0000 0.9239
vn -0.3827 0.0000 0.9239
vn -0.9239 0.0000 0.3827
vn 0.0000 1.0000 0.0000
vn -0.9239 0.0000 -0.3827
vn -0.3827 0.0000 -0.9239
vn 0.0980 0.0000 -0.9952
vn 0.2903 0.0000 -0.9569
vn 0.4714 0.0000 -0.8819
vn 0.6344 0.0000 -0.7730
vn 0.7730 0.0000 -0.6344
vn 0.8819 0.0000 -0.4714
vn 0.9569 0.0000 -0.2903
vn 0.9952 0.0000 -0.0980
vn 0.9952 0.0000 0.0980
vn 0.9569 0.0000 0.2903
vn 0.8819 0.0000 0.4714
vn 0.7730 0.0000 0.6344
vn 0.6344 0.0000 0.7730
vn 0.4714 0.0000 0.8819
vn 0.2903 0.0000 0.9569
vn 0.0980 0.0000 0.9952
vn -0.0980 0.0000 0.9952
vn -0.2903 0.0000 0.9569
vn -0.4714 0.0000 0.8819
vn -0.6344 0.0000 0.7730
vn -0.7730 0.0000 0.6344
vn -0.8819 0.0000 0.4714
vn -0.9569 0.0000 0.2903
vn -0.9952 0.0000 0.0980
vn -0.9952 0.0000 -0.0980
vn -0.9569 0.0000 -0.2903
vn -0.8819 0.0000 -0.4714
vn -0.7730 0.0000 -0.6344
vn -0.6344 0.0000 -0.7730
vn -0.4714 0.0000 -0.8819
vn -0.2903 0.0000 -0.9569
vn -0.0980 0.0000 -0.9952
usemtl マテリアル
s off
f 1/1/1 33/2/1 2/3/1
f 2/3/2 33/2/2 3/4/2
f 3/4/3 33/2/3 4/5/3
f 4/5/4 33/2/4 5/6/4
f 5/7/5 33/8/5 6/9/5
f 6/9/6 33/8/6 7/10/6
f 7/10/7 33/8/7 8/11/7
f 8/11/8 33/8/8 9/12/8
f 9/12/9 33/8/9 10/13/9
f 10/13/10 33/8/10 11/14/10
f 11/14/11 33/8/11 12/15/11
f 12/15/12 33/8/12 13/16/12
f 13/17/13 33/18/13 14/19/13
f 14/19/14 33/18/14 15/20/14
f 15/20/15 33/18/15 16/21/15
f 16/21/16 33/18/16 17/22/16
f 17/22/17 33/18/17 18/23/17
f 18/23/18 33/18/18 19/24/18
f 19/24/19 33/18/19 20/25/19
f 20/25/20 33/18/20 21/26/20
f 21/27/21 33/28/21 22/29/21
f 22/29/22 33/28/22 23/30/22
f 23/30/23 33/28/23 24/31/23
f 24/31/24 33/28/24 25/32/24
f 25/32/25 33/28/25 26/33/25
f 26/33/26 33/28/26 27/34/26
f 27/34/27 33/28/27 28/35/27
f 28/35/28 33/28/28 29/36/28
f 29/37/29 33/2/29 30/38/29
f 30/38/30 33/2/30 31/39/30
f 1/40/31 2/41/31 3/42/31 4/43/31 5/44/31 6/45/31 7/46/31 8/47/31 9/48/31 10/49/31 11/50/31 12/51/31 13/52/31 14/53/31 15/54/31 16/55/31 17/56/31 18/57/31 19/58/31 20/59/31 21/60/31 22/61/31 23/62/31 24/63/31 25/64/31 26/65/31 27/66/31 28/67/31 29/68/31 30/69/31 31/70/31 32/71/31
f 31/39/32 33/2/32 32/72/32
f 32/72/33 33/2/33 1/1/33
f 34/73/34 35/74/34 37/75/34 36/76/34
f 36/77/35 37/78/35 39/79/35 38/80/35
f 38/80/36 39/79/36 41/81/36 40/82/36
f 40/83/37 41/84/37 43/85/37 42/86/37
f 42/86/38 43/85/38 45/87/38 44/88/38
f 44/89/39 45/90/39 47/91/39 46/92/39
f 37/93/40 35/94/40 49/95/40 47/96/40 45/97/40 43/98/40 41/99/40 39/100/40
f 46/92/41 47/91/41 49/101/41 48/102/41
f 48/103/42 49/104/42 35/74/42 34/73/42
f 34/105/31 36/106/31 38/107/31 40/108/31 42/109/31 44/110/31 46/111/31 48/112/31
f 50/113/43 51/114/43 53/115/43 52/116/43
f 52/116/44 53/115/44 55/117/44 54/118/44
f 54/118/45 55/117/45 57/119/45 56/120/45
f 56/120/46 57/119/46 59/121/46 58/122/46
f 58/123/47 59/124/47 61/125/47 60/126/47
f 60/126/48 61/125/48 63/127/48 62/128/48
f 62/128/49 63/127/49 65/129/49 64/130/49
f 64/130/50 65/129/50 67/131/50 66/132/50
f 66/132/51 67/131/51 69/133/51 68/134/51
f 68/134/52 69/133/52 71/135/52 70/136/52
f 70/136/53 71/135/53 73/137/53 72/138/53
f 72/138/54 73/137/54 75/139/54 74/140/54
f 74/141/55 75/142/55 77/143/55 76/144/55
f 76/144/56 77/143/56 79/145/56 78/146/56
f 78/146/57 79/145/57 81/147/57 80/148/57
f 80/148/58 81/147/58 83/149/58 82/150/58
f 82/150/59 83/149/59 85/151/59 84/152/59
f 84/152/60 85/151/60 87/153/60 86/154/60
f 86/154/61 87/153/61 89/155/61 88/156/61
f 88/156/62 89/155/62 91/157/62 90/158/62
f 90/159/63 91/160/63 93/161/63 92/162/63
f 92/162/64 93/161/64 95/163/64 94/164/64
f 94/164/65 95/163/65 97/165/65 96/166/65
f 96/166/66 97/165/66 99/167/66 98/168/66
f 98/168/67 99/167/67 101/169/67 100/170/67
f 100/170/68 101/169/68 103/171/68 102/172/68
f 102/172/69 103/171/69 105/173/69 104/174/69
f 104/174/70 105/173/70 107/175/70 106/176/70
f 106/177/71 107/178/71 109/179/71 108/180/71
f 108/180/72 109/179/72 111/181/72 110/182/72
f 53/183/40 51/184/40 113/185/40 111/186/40 109/187/40 107/188/40 105/189/40 103/190/40 101/191/40 99/192/40 97/193/40 95/194/40 93/195/40 91/196/40 89/197/40 87/198/40 85/199/40 83/200/40 81/201/40 79/202/40 77/203/40 75/204/40 73/205/40 71/206/40 69/207/40 67/208/40 65/209/40 63/210/40 61/211/40 59/212/40 57/213/40 55/214/40
f 110/182/73 111/181/73 113/215/73 112/216/73
f 112/216/74 113/215/74 51/114/74 50/113/74
f 50/217/31 52/218/31 54/219/31 56/220/31 58/221/31 60/222/31 62/223/31 64/224/31 66/225/31 68/226/31 70/227/31 72/228/31 74/229/31 76/230/31 78/231/31 80/232/31 82/233/31 84/234/31 86/235/31 88/236/31 90/237/31 92/238/31 94/239/31 96/240/31 98/241/31 100/242/31 102/243/31 104/244/31 106/245/31 108/246/31 110/247/31 112/248/31
